<svg width="40" height="21" viewBox="0 0 40 21" fill="none" xmlns="http://www.w3.org/2000/svg">
<mask id="mask0_178_19" style="mask-type:luminance" maskUnits="userSpaceOnUse" x="0" y="0" width="40" height="21">
<path d="M40 0.0800781H0V20.0801H40V0.0800781Z" fill="white"/>
</mask>
<g mask="url(#mask0_178_19)">
<path d="M11.4217 4.72266H0V5.8981H11.4217V4.72266Z" fill="white"/>
<path d="M11.422 9.48438H2.89453V10.6598H11.422V9.48438Z" fill="white"/>
<path d="M11.4215 14.2324H6.79297V15.4078H11.4215V14.2324Z" fill="white"/>
<path d="M36.819 0.0800781H16.523C14.7709 0.0800781 13.3477 1.47884 13.3477 3.20085V16.9593C13.3477 18.6813 14.7709 20.0801 16.523 20.0801H36.819C38.5712 20.0801 39.9944 18.6813 39.9944 16.9593V3.20085C39.9944 1.47884 38.5712 0.0800781 36.819 0.0800781ZM36.819 1.25551C37.1061 1.25551 37.3752 1.32016 37.6263 1.42595L29.3799 9.28372L27.2331 11.2996L26.683 11.8168L26.091 11.2584L24.4046 9.67749L23.992 9.2896L15.7097 1.43182C15.9549 1.32016 16.23 1.25551 16.517 1.25551H36.819ZM14.5377 3.20085C14.5377 2.83647 14.6453 2.50147 14.8247 2.20761L23.1249 10.0948L14.8426 17.976C14.6513 17.6763 14.5377 17.3296 14.5377 16.9534V3.20085ZM16.517 18.9046C16.242 18.9046 15.9788 18.8517 15.7396 18.7518L23.992 10.9176L26.683 13.4447L29.374 10.9117L37.5964 18.746C37.3572 18.8459 37.0941 18.9046 36.819 18.9046H16.523H16.517ZM38.7984 16.9593C38.7984 17.3354 38.6848 17.6822 38.4994 17.9819L30.2411 10.1065L38.5114 2.21349C38.6908 2.50735 38.7984 2.84235 38.7984 3.21261V16.9593Z" fill="white"/>
</g>
</svg>
