<svg width="25" height="26" viewBox="0 0 25 26" fill="none" xmlns="http://www.w3.org/2000/svg">
<g clip-path="url(#clip0_137_778)">
<path d="M24.2802 20.7794L18.7602 15.2594L16.0802 17.6594C16.0802 17.6594 14.1202 16.1094 12.0702 14.0094C11.9902 13.9194 11.7102 13.6494 11.6302 13.5694C9.53018 11.5194 7.98018 9.55937 7.98018 9.55937L10.3802 6.87936L4.86019 1.35938C4.86019 1.35938 -1.21983 4.56937 1.22017 9.24936C3.22017 13.0894 6.69018 16.6094 7.88018 17.7494C9.02018 18.9394 12.5402 22.4094 16.3802 24.4094C21.0602 26.8394 24.2702 20.7694 24.2702 20.7694L24.2802 20.7794Z" stroke="white" stroke-miterlimit="10"/>
<path d="M15.5195 6.28907C16.5595 6.00907 17.7195 6.28907 18.5395 7.09907C19.3595 7.90907 19.6295 9.07907 19.3495 10.1191" stroke="white" stroke-miterlimit="10"/>
<path d="M14.25 1.55929C16.93 0.839283 19.91 1.53929 22.01 3.63929C24.11 5.73929 24.81 8.71929 24.09 11.3993" stroke="white" stroke-miterlimit="10"/>
</g>
<defs>
<clipPath id="clip0_137_778">
<rect width="25" height="26" fill="white"/>
</clipPath>
</defs>
</svg>
