<svg width="14" height="13" viewBox="0 0 14 13" fill="none" xmlns="http://www.w3.org/2000/svg">
<path d="M6.99976 10.9562L3.88726 12.8312C3.74976 12.9187 3.60601 12.9562 3.45601 12.9437C3.30601 12.9312 3.17476 12.8812 3.06226 12.7937C2.94976 12.7062 2.86226 12.5969 2.79976 12.4659C2.73726 12.3349 2.72476 12.1879 2.76226 12.0249L3.58726 8.48115L0.831008 6.0999C0.706008 5.9874 0.628008 5.85915 0.597008 5.71515C0.566008 5.57115 0.575258 5.43065 0.624758 5.29365C0.674258 5.15665 0.749258 5.04415 0.849758 4.95615C0.950258 4.86815 1.08776 4.8119 1.26226 4.7874L4.89976 4.46865L6.30601 1.13115C6.36851 0.981152 6.46551 0.868652 6.59701 0.793652C6.72851 0.718652 6.86276 0.681152 6.99976 0.681152C7.13676 0.681152 7.27101 0.718652 7.40251 0.793652C7.53401 0.868652 7.63101 0.981152 7.69351 1.13115L9.09976 4.46865L12.7373 4.7874C12.9123 4.8124 13.0498 4.86865 13.1498 4.95615C13.2498 5.04365 13.3248 5.15615 13.3748 5.29365C13.4248 5.43115 13.4343 5.5719 13.4033 5.7159C13.3723 5.8599 13.294 5.9879 13.1685 6.0999L10.4123 8.48115L11.2373 12.0249C11.2748 12.1874 11.2623 12.3344 11.1998 12.4659C11.1373 12.5974 11.0498 12.7067 10.9373 12.7937C10.8248 12.8807 10.6935 12.9307 10.5435 12.9437C10.3935 12.9567 10.2498 12.9192 10.1123 12.8312L6.99976 10.9562Z" fill="black"/>
</svg>
